# xmcd
#
# Track frame offsets: 
#        150
#        23977
#        41781
#        64550
#        82133
#        97315
#        118010
#        138758
#        158272
#        174581
#        190651
#        203373
#
# Disc length: 3086 seconds
#
# Revision: 2
# Processed by: cddbd v1.5.2PL0 Copyright (c) Steve Scherf et al.
# Submitted via: ExactAudioCopy v1.1
#
DISCID=980c0c0c
DTITLE=Wolf Maahn - Vereinigte Staaten
DYEAR=2010
DGENRE=Rock
TTITLE0=Unter einem großen Himmel
TTITLE1=Kannst du sehen
TTITLE2=Vereinigte Staaten
TTITLE3=Dein Gang
TTITLE4=Süßes Glück
TTITLE5=Das Ding
TTITLE6=Am heutigen Morgen
TTITLE7=Im Lauf der Zeit
TTITLE8=Was dümmer macht
TTITLE9=Nonstop Superflat Popup Internetshow
TTITLE10=210
TTITLE11=Flucht nach vorn
EXTD=
EXTT0=
EXTT1=
EXTT2=
EXTT3=
EXTT4=
EXTT5=
EXTT6=
EXTT7=
EXTT8=
EXTT9=
EXTT10=
EXTT11=
PLAYORDER=
